<svg width="32" height="32" viewBox="0 0 32 32" fill="none" xmlns="http://www.w3.org/2000/svg">
<rect width="32" height="32" fill="#1D9BF0"/>
<path d="M27.9999 8.55698C27.1004 8.95287 26.1475 9.21401 25.1719 9.33198C26.2012 8.71724 26.9713 7.74847 27.3379 6.60698C26.3717 7.1835 25.3126 7.58752 24.2079 7.80098C23.7469 7.3106 23.1901 6.92002 22.5721 6.65341C21.9541 6.38681 21.288 6.24984 20.6149 6.25098C19.8726 6.25095 19.1399 6.41874 18.4716 6.7418C17.8033 7.06487 17.2167 7.53485 16.7556 8.1166C16.2946 8.69835 15.971 9.37681 15.8092 10.1012C15.6473 10.8257 15.6513 11.5773 15.8209 12.3C11.7309 12.09 8.10091 10.13 5.67091 7.14998C5.23504 7.90271 5.00564 8.75717 5.00591 9.62698C5.00591 11.337 5.87591 12.841 7.19591 13.727C6.41464 13.6988 5.65086 13.4878 4.96591 13.111V13.171C4.96591 15.561 6.66591 17.551 8.91791 18.001C8.50391 18.116 8.06791 18.175 7.62091 18.175C7.30357 18.1743 6.99424 18.1457 6.69291 18.089C7.00816 19.067 7.62084 19.9222 8.44547 20.5353C9.2701 21.1484 10.2655 21.4888 11.2929 21.509C9.54822 22.8759 7.3953 23.6178 5.17891 23.616C4.78091 23.616 4.38924 23.5933 4.00391 23.548C6.25612 24.9948 8.87704 25.763 11.5539 25.761C20.6099 25.761 25.5639 18.254 25.5639 11.748C25.5639 11.5347 25.5589 11.3223 25.5489 11.111C26.5089 10.416 27.3439 9.55098 28.0039 8.56098L27.9999 8.55698Z" fill="white"/>
</svg>
