<svg width="32" height="32" viewBox="0 0 32 32" fill="none" xmlns="http://www.w3.org/2000/svg">
<rect width="32" height="32" fill="#0166FF"/>
<path d="M28 16C28 9.373 22.627 4 16 4C9.373 4 4 9.373 4 16C4 21.628 7.875 26.35 13.101 27.647V19.667H10.627V16H13.1V14.42C13.1 10.335 14.949 8.442 18.959 8.442C19.719 8.442 21.031 8.592 21.567 8.74V12.065C21.284 12.035 20.792 12.02 20.181 12.02C18.214 12.02 17.453 12.765 17.453 14.703V16H21.373L20.7 19.667H17.453V27.912C23.395 27.195 28 22.135 28 16Z" fill="white"/>
</svg>
