<svg width="32" height="32" viewBox="0 0 32 32" fill="none" xmlns="http://www.w3.org/2000/svg">
<rect width="32" height="32" fill="#888990"/>
<path d="M7.591 21.177C7.591 20.817 7.71667 20.5113 7.968 20.26L10.772 17.456C10.8901 17.3338 11.0322 17.2372 11.1892 17.1721C11.3463 17.1071 11.515 17.0751 11.685 17.078C12.0617 17.078 12.385 17.2213 12.655 17.508C12.6297 17.5353 12.5447 17.6187 12.4 17.758C12.2567 17.898 12.16 17.9947 12.11 18.048C12.0388 18.1297 11.972 18.2151 11.91 18.304C11.8311 18.4073 11.7712 18.5238 11.733 18.648C11.7012 18.7687 11.6858 18.8932 11.687 19.018C11.687 19.378 11.8127 19.684 12.064 19.936C12.1832 20.0582 12.3261 20.1547 12.484 20.2195C12.6419 20.2843 12.8114 20.3162 12.982 20.313C13.1087 20.3137 13.233 20.298 13.355 20.266C13.481 20.2287 13.596 20.1703 13.7 20.091C13.79 20.031 13.8753 19.9643 13.956 19.891C14.056 19.7977 14.1527 19.701 14.246 19.601C14.386 19.459 14.469 19.371 14.496 19.347C14.7927 19.627 14.941 19.955 14.941 20.331C14.941 20.6903 14.8153 20.9957 14.564 21.247L11.786 24.037C11.6662 24.1572 11.523 24.2515 11.3653 24.3141C11.2075 24.3767 11.0386 24.4063 10.869 24.401C10.509 24.4003 10.2033 24.2837 9.952 24.051L7.97 22.081C7.84843 21.9651 7.75211 21.8253 7.68706 21.6705C7.62202 21.5156 7.58966 21.349 7.592 21.181L7.591 21.177ZM17.068 11.673C17.068 11.313 17.1937 11.0073 17.445 10.756L20.222 7.966C20.3401 7.84378 20.4822 7.74715 20.6392 7.68213C20.7963 7.6171 20.965 7.58506 21.135 7.588C21.485 7.58733 21.7907 7.70867 22.052 7.952L24.036 9.92C24.2893 10.172 24.416 10.473 24.416 10.823C24.416 11.183 24.2893 11.4887 24.036 11.74L21.234 14.544C21.1143 14.6641 20.9713 14.7583 20.8137 14.8209C20.6562 14.8835 20.4875 14.9132 20.318 14.908C19.9413 14.908 19.618 14.7687 19.348 14.49C19.3733 14.4633 19.4583 14.38 19.603 14.24C19.7021 14.1458 19.7988 14.0491 19.893 13.95C19.965 13.87 20.0317 13.785 20.093 13.695C20.1737 13.591 20.2323 13.4763 20.269 13.351C20.301 13.2303 20.3167 13.107 20.316 12.981C20.316 12.6223 20.1903 12.3177 19.939 12.067C19.8199 11.9449 19.6772 11.8485 19.5195 11.7837C19.3618 11.7189 19.1925 11.687 19.022 11.69C18.8853 11.69 18.762 11.7053 18.652 11.736C18.5373 11.7667 18.422 11.825 18.306 11.911C18.218 11.9742 18.1326 12.0409 18.05 12.111C17.9967 12.1617 17.9 12.2583 17.76 12.401L17.51 12.659C17.216 12.381 17.0687 12.0533 17.068 11.676V11.673ZM5.003 21.177C5.003 22.255 5.385 23.167 6.149 23.913L8.131 25.881C8.876 26.631 9.789 27.001 10.867 27.001C11.9537 27.001 12.8703 26.62 13.617 25.858L16.394 23.068C17.144 22.321 17.514 21.408 17.514 20.331C17.5153 19.2243 17.121 18.285 16.331 17.513L17.517 16.328C18.2903 17.118 19.2253 17.5133 20.322 17.514C21.4 17.514 22.3167 17.1373 23.072 16.384L25.875 13.574C26.6263 12.8193 27.0023 11.9033 27.003 10.826C27.003 9.746 26.621 8.83333 25.857 8.088L23.875 6.12C23.1303 5.37267 22.2183 4.99933 21.139 5C20.0523 5 19.1357 5.382 18.389 6.146L15.612 8.936C14.862 9.683 14.492 10.596 14.492 11.673C14.4907 12.7783 14.885 13.7173 15.675 14.49L14.489 15.676C13.7157 14.8853 12.7807 14.49 11.684 14.49C10.606 14.49 9.68933 14.8673 8.934 15.622L6.13 18.426C5.37667 19.1813 5 20.098 5 21.176L5.003 21.177Z" fill="white"/>
</svg>
