<svg width="19" height="19" viewBox="0 0 19 19" fill="none" xmlns="http://www.w3.org/2000/svg">
<path d="M5.45059 6.29866C6.14658 7.74823 7.09541 9.10693 8.29691 10.3085C9.49851 11.51 10.8572 12.4588 12.3068 13.1548C12.4315 13.2147 12.4938 13.2446 12.5727 13.2676C12.8531 13.3494 13.1973 13.2907 13.4347 13.1206C13.5016 13.0728 13.5587 13.0156 13.673 12.9013C14.0226 12.5517 14.1974 12.3769 14.3732 12.2626C15.0361 11.8316 15.8907 11.8316 16.5536 12.2626C16.7294 12.3769 16.9042 12.5517 17.2538 12.9013L17.4486 13.0962C17.9801 13.6276 18.2458 13.8934 18.3901 14.1787C18.6772 14.7463 18.6772 15.4166 18.3901 15.9841C18.2458 16.2695 17.9801 16.5352 17.4486 17.0667L17.291 17.2243C16.7614 17.7539 16.4966 18.0187 16.1365 18.221C15.737 18.4454 15.1165 18.6068 14.6583 18.6054C14.2454 18.6042 13.9631 18.5241 13.3987 18.3639C10.3653 17.5029 7.50291 15.8784 5.11497 13.4904C2.72699 11.1025 1.10252 8.24013 0.241549 5.20674C0.0813389 4.6423 0.00122866 4.36007 8.65781e-06 3.94713C-0.00136134 3.4889 0.159999 2.86841 0.384419 2.46891C0.586669 2.10888 0.851479 1.84406 1.38111 1.31444L1.53874 1.15681C2.07018 0.625362 2.33591 0.359642 2.62129 0.215302C3.18885 -0.0717675 3.85911 -0.0717675 4.42667 0.215302C4.71205 0.359642 4.97778 0.625362 5.50922 1.15681L5.70409 1.35168C6.05369 1.70128 6.2285 1.87608 6.34278 2.05186C6.77378 2.71475 6.77378 3.56933 6.34278 4.23222C6.2285 4.408 6.05369 4.58281 5.70409 4.93241C5.58978 5.04672 5.53262 5.10388 5.48478 5.17069C5.31477 5.40812 5.25607 5.75238 5.33779 6.03273C5.36079 6.11163 5.39072 6.17397 5.45059 6.29866Z" fill="#FF0000"/>
</svg>
